<svg xmlns="http://www.w3.org/2000/svg" xmlns:xlink="http://www.w3.org/1999/xlink" width="1920" zoomAndPan="magnify" viewBox="0 0 1440 809.999993" height="1080" preserveAspectRatio="xMidYMid meet" version="1.0"><defs><clipPath id="ec8c58dfa4"><path d="M 742 349.300781 L 1099.613281 349.300781 L 1099.613281 747.832031 L 742 747.832031 Z M 742 349.300781 " clip-rule="nonzero"/></clipPath><clipPath id="17b560b711"><path d="M 932.015625 349.300781 L 1099.613281 349.300781 L 1099.613281 599 L 932.015625 599 Z M 932.015625 349.300781 " clip-rule="nonzero"/></clipPath></defs><path fill="#9ed16a" d="M 934.203125 184.402344 L 906.0625 196.554688 L 852.222656 103.28125 C 800.464844 13.613281 671.058594 13.613281 619.292969 103.28125 L 536.941406 245.960938 C 532.449219 253.734375 538.0625 263.457031 547.042969 263.457031 L 635.542969 263.457031 C 639.703125 263.457031 643.558594 261.234375 645.640625 257.625 L 705.871094 153.277344 C 714.539062 138.257812 728.320312 136.019531 735.757812 136.019531 C 743.203125 136.019531 756.984375 138.257812 765.652344 153.277344 L 813.671875 236.476562 L 783.914062 249.332031 C 768.226562 256.109375 768.464844 278.441406 784.296875 284.875 L 892.464844 328.871094 C 902.441406 332.929688 913.804688 328.015625 917.6875 317.972656 L 959.816406 209.046875 C 965.976562 193.101562 949.890625 177.625 934.203125 184.402344 " fill-opacity="1" fill-rule="nonzero"/><path fill="#89bf53" d="M 735.59375 103.28125 C 721.148438 78.261719 700.648438 60.21875 677.480469 49.164062 C 654.289062 60.21875 633.757812 78.234375 619.292969 103.28125 L 594.570312 146.125 L 536.941406 245.960938 C 532.449219 253.734375 538.0625 263.457031 547.042969 263.457031 L 635.542969 263.457031 C 639.703125 263.457031 643.558594 261.234375 645.640625 257.625 L 677.449219 202.519531 L 705.871094 153.277344 C 718.265625 131.804688 746.199219 131.402344 760.324219 146.125 L 735.59375 103.28125 " fill-opacity="1" fill-rule="nonzero"/><g clip-path="url(#ec8c58dfa4)"><path fill="#9ed16a" d="M 1081.191406 497.832031 L 998.414062 355.394531 C 993.902344 347.632812 982.679688 347.671875 978.210938 355.457031 L 934.191406 432.242188 C 932.121094 435.859375 932.132812 440.308594 934.226562 443.90625 L 994.761719 548.078125 C 1003.472656 563.070312 998.566406 576.144531 994.867188 582.597656 C 991.164062 589.054688 982.363281 599.894531 965.027344 599.949219 L 868.980469 600.226562 L 872.632812 568.007812 C 874.554688 551.027344 855.070312 540.125 841.613281 550.65625 L 749.648438 622.625 C 741.164062 629.261719 739.769531 641.566406 746.550781 649.9375 L 820.070312 740.671875 C 830.824219 753.949219 852.257812 747.691406 854.1875 730.710938 L 857.640625 700.246094 L 965.320312 699.929688 C 1068.84375 699.625 1133.210938 587.351562 1081.191406 497.832031 " fill-opacity="1" fill-rule="nonzero"/></g><g clip-path="url(#17b560b711)"><path fill="#89bf53" d="M 1023.335938 598.738281 C 1052.230469 598.652344 1078.070312 589.839844 1099.1875 575.234375 C 1101.132812 549.617188 1095.722656 522.839844 1081.191406 497.832031 L 1056.332031 455.066406 L 998.414062 355.394531 C 993.902344 347.632812 982.679688 347.671875 978.210938 355.457031 L 934.191406 432.242188 C 932.121094 435.859375 932.132812 440.308594 934.226562 443.90625 L 966.195312 498.921875 L 994.761719 548.078125 C 1007.214844 569.511719 993.671875 593.949219 973.878906 598.882812 L 1023.335938 598.738281 " fill-opacity="1" fill-rule="nonzero"/></g><path fill="#9ed16a" d="M 639.289062 607.003906 C 637.214844 603.394531 633.375 601.160156 629.203125 601.148438 L 508.742188 600.835938 C 491.40625 600.792969 482.605469 589.949219 478.898438 583.496094 C 475.195312 577.042969 470.277344 563.972656 478.988281 548.976562 L 527.222656 465.910156 L 553.191406 485.324219 C 566.875 495.558594 586.113281 484.234375 583.820312 467.304688 L 568.128906 351.566406 C 566.683594 340.894531 556.769531 333.476562 546.117188 335.109375 L 430.695312 352.785156 C 413.808594 355.371094 408.390625 377.039062 422.074219 387.273438 L 446.625 405.628906 L 392.539062 498.761719 C 340.550781 588.300781 404.964844 700.554688 508.484375 700.824219 L 673.195312 701.25 C 682.175781 701.269531 687.8125 691.5625 683.34375 683.777344 L 639.289062 607.003906 " fill-opacity="1" fill-rule="nonzero"/><path fill="#89bf53" d="M 450.59375 599.9375 C 436.082031 624.929688 430.652344 651.6875 432.59375 677.285156 C 453.722656 691.90625 479.566406 700.746094 508.484375 700.824219 L 557.9375 700.953125 L 673.195312 701.25 C 682.175781 701.269531 687.8125 691.5625 683.34375 683.777344 L 639.289062 607.003906 C 637.214844 603.394531 633.375 601.160156 629.203125 601.148438 L 565.589844 600.984375 L 508.742188 600.835938 C 483.957031 600.769531 469.699219 576.738281 475.433594 557.160156 L 450.59375 599.9375 " fill-opacity="1" fill-rule="nonzero"/><path fill="#89bf53" d="M 728.917969 403.632812 C 736.265625 444.363281 725.410156 483.359375 716.390625 506.628906 C 711.597656 518.972656 698.257812 521.378906 689.453125 511.480469 C 672.875 492.835938 649.089844 460.082031 641.75 419.351562 C 634.410156 378.617188 645.257812 339.621094 654.285156 316.359375 C 659.074219 304.011719 672.417969 301.605469 681.21875 311.5 C 697.792969 330.148438 721.574219 362.898438 728.917969 403.632812 " fill-opacity="1" fill-rule="nonzero"/><path fill="#ffffff" d="M 729.128906 404.808594 C 729.125 404.796875 729.125 404.789062 729.125 404.785156 C 729.125 404.789062 729.125 404.800781 729.128906 404.808594 M 729.105469 404.6875 C 729.105469 404.675781 729.097656 404.65625 729.097656 404.644531 C 729.097656 404.65625 729.105469 404.667969 729.105469 404.6875 M 729.085938 404.558594 C 729.082031 404.539062 729.082031 404.527344 729.074219 404.515625 C 729.082031 404.527344 729.082031 404.539062 729.085938 404.558594 M 729.0625 404.4375 C 729.0625 404.417969 729.054688 404.398438 729.054688 404.382812 C 729.054688 404.398438 729.0625 404.417969 729.0625 404.4375 M 729.039062 404.316406 C 729.039062 404.289062 729.03125 404.273438 729.03125 404.253906 C 729.03125 404.273438 729.039062 404.289062 729.039062 404.316406 M 729.019531 404.191406 C 729.015625 404.167969 729.015625 404.152344 729.007812 404.132812 C 729.015625 404.152344 729.015625 404.167969 729.019531 404.191406 M 728.996094 404.066406 C 728.996094 404.046875 728.988281 404.023438 728.988281 404.003906 C 728.988281 404.023438 728.996094 404.046875 728.996094 404.066406 M 728.976562 403.945312 C 728.972656 403.917969 728.964844 403.902344 728.964844 403.882812 C 728.964844 403.902344 728.972656 403.917969 728.976562 403.945312 M 728.953125 403.808594 C 728.945312 403.792969 728.945312 403.773438 728.941406 403.753906 C 728.945312 403.773438 728.945312 403.792969 728.953125 403.808594 M 681.21875 311.5 C 680.488281 310.683594 679.726562 309.949219 678.949219 309.296875 C 679.726562 309.949219 680.488281 310.683594 681.21875 311.5 M 678.929688 309.285156 C 678.929688 309.285156 678.929688 309.277344 678.921875 309.277344 C 678.921875 309.277344 678.929688 309.285156 678.929688 309.285156 " fill-opacity="1" fill-rule="nonzero"/><path fill="#96c666" d="M 711.757812 474.8125 C 708.335938 474.140625 704.941406 472.21875 702.035156 468.953125 C 685.457031 450.304688 661.679688 417.550781 654.332031 376.820312 C 650.332031 354.640625 651.75 333.003906 655.304688 314.117188 C 658.320312 308.394531 663.394531 305.367188 668.726562 305.367188 C 672.183594 305.367188 675.746094 306.640625 678.921875 309.277344 C 678.929688 309.277344 678.929688 309.285156 678.929688 309.285156 C 678.9375 309.289062 678.941406 309.289062 678.949219 309.296875 C 679.726562 309.949219 680.488281 310.683594 681.21875 311.5 C 697.792969 330.148438 721.574219 362.898438 728.917969 403.632812 C 728.929688 403.675781 728.933594 403.710938 728.941406 403.753906 C 728.945312 403.773438 728.945312 403.792969 728.953125 403.808594 C 728.960938 403.835938 728.960938 403.859375 728.964844 403.882812 C 728.964844 403.902344 728.972656 403.917969 728.976562 403.945312 C 728.976562 403.960938 728.984375 403.984375 728.988281 404.003906 C 728.988281 404.023438 728.996094 404.046875 728.996094 404.066406 C 729 404.082031 729.007812 404.109375 729.007812 404.132812 C 729.015625 404.152344 729.015625 404.167969 729.019531 404.191406 C 729.027344 404.210938 729.027344 404.234375 729.03125 404.253906 C 729.03125 404.273438 729.039062 404.289062 729.039062 404.316406 C 729.042969 404.339844 729.050781 404.359375 729.054688 404.382812 C 729.054688 404.398438 729.0625 404.417969 729.0625 404.4375 C 729.070312 404.460938 729.074219 404.484375 729.074219 404.515625 C 729.082031 404.527344 729.082031 404.539062 729.085938 404.558594 C 729.085938 404.589844 729.09375 404.613281 729.097656 404.644531 C 729.097656 404.65625 729.105469 404.675781 729.105469 404.6875 C 729.113281 404.71875 729.117188 404.746094 729.125 404.785156 C 729.125 404.789062 729.125 404.796875 729.128906 404.808594 C 730.367188 412.011719 731.035156 419.152344 731.253906 426.160156 C 730.492188 427.414062 729.757812 428.679688 729.039062 429.945312 C 729.03125 429.964844 729.027344 429.976562 729.019531 429.988281 C 729.007812 430.007812 728.996094 430.027344 728.988281 430.042969 C 728.964844 430.082031 728.945312 430.117188 728.929688 430.152344 C 728.929688 430.152344 728.929688 430.152344 728.921875 430.152344 C 720.664062 444.84375 715.25 460.203125 711.757812 474.8125 " fill-opacity="1" fill-rule="nonzero"/><path fill="#5daf3f" d="M 807.597656 471.109375 C 785.582031 506.152344 751.285156 527.648438 728.945312 538.761719 C 717.082031 544.65625 705.609375 537.441406 705.773438 524.191406 C 706.089844 499.242188 710.582031 459.019531 732.605469 423.972656 C 754.621094 388.929688 788.910156 367.425781 811.257812 356.320312 C 823.113281 350.429688 834.59375 357.644531 834.421875 370.882812 C 834.113281 395.839844 829.613281 436.066406 807.597656 471.109375 " fill-opacity="1" fill-rule="nonzero"/><path fill="#a2cc77" d="M 728.921875 430.152344 C 728.929688 430.152344 728.929688 430.152344 728.929688 430.152344 L 728.921875 430.152344 M 728.988281 430.042969 C 728.996094 430.027344 729.007812 430.007812 729.019531 429.988281 C 729.007812 430.007812 728.996094 430.027344 728.988281 430.042969 " fill-opacity="1" fill-rule="nonzero"/><path fill="#ffffff" d="M 731.261719 426.152344 C 731.699219 425.421875 732.148438 424.691406 732.605469 423.96875 C 753.375 390.910156 785.0625 369.910156 807.347656 358.3125 C 785.0625 369.910156 753.375 390.910156 732.605469 423.972656 C 732.148438 424.699219 731.699219 425.421875 731.261719 426.152344 " fill-opacity="1" fill-rule="nonzero"/><path fill="#96c666" d="M 731.253906 426.160156 C 731.253906 426.152344 731.261719 426.152344 731.261719 426.152344 C 731.261719 426.152344 731.253906 426.152344 731.253906 426.160156 " fill-opacity="1" fill-rule="nonzero"/><path fill="#a2cc77" d="M 729.039062 429.945312 C 729.757812 428.679688 730.492188 427.414062 731.253906 426.160156 C 730.5 427.414062 729.757812 428.679688 729.039062 429.945312 " fill-opacity="1" fill-rule="nonzero"/><path fill="#ffffff" d="M 811.257812 356.320312 C 811.3125 356.296875 811.367188 356.265625 811.421875 356.242188 C 811.367188 356.265625 811.3125 356.296875 811.257812 356.320312 " fill-opacity="1" fill-rule="nonzero"/><path fill="#6fb854" d="M 713.089844 493.96875 C 711.386719 493.96875 709.761719 493.703125 708.246094 493.183594 C 711.128906 473.59375 717.09375 451.183594 728.921875 430.152344 L 728.929688 430.152344 C 728.945312 430.117188 728.964844 430.082031 728.988281 430.042969 C 728.996094 430.027344 729.007812 430.007812 729.019531 429.988281 C 729.027344 429.976562 729.03125 429.964844 729.039062 429.945312 C 729.757812 428.679688 730.5 427.414062 731.253906 426.160156 C 731.253906 426.152344 731.261719 426.152344 731.261719 426.152344 C 731.699219 425.421875 732.148438 424.699219 732.605469 423.972656 C 753.375 390.910156 785.0625 369.910156 807.347656 358.3125 C 808.6875 357.613281 809.988281 356.949219 811.257812 356.320312 C 811.3125 356.296875 811.367188 356.265625 811.421875 356.242188 C 814.203125 354.890625 816.953125 354.261719 819.535156 354.261719 C 821.234375 354.261719 822.863281 354.53125 824.378906 355.050781 C 821.207031 376.578125 814.324219 401.503906 800.019531 424.265625 C 778.003906 459.308594 743.714844 480.808594 721.367188 491.914062 C 718.53125 493.320312 715.726562 493.96875 713.089844 493.96875 " fill-opacity="1" fill-rule="nonzero"/></svg>